<svg width="61" height="60" viewBox="0 0 61 60" fill="none" xmlns="http://www.w3.org/2000/svg">
<path d="M52.2387 31.0393C54.2518 31.0197 56.2649 30.9696 58.278 30.9947C59.5713 31.0114 60.471 31.7136 60.5581 32.9954C60.6875 34.8875 60.7887 36.8074 60.277 38.6688C59.7938 40.455 58.7366 42.0365 57.2653 43.1738C55.7941 44.3112 53.9891 44.9424 52.1235 44.972C50.3466 45.0333 48.5612 45.0472 46.7815 44.972C45.7665 44.9274 45.4263 45.1615 45.4404 46.2455C45.4657 48.4747 45.6906 50.7039 45.2858 52.9109C44.5491 56.943 41.1725 59.8773 37.0676 59.9525C32.5691 60.0212 28.0706 60.0212 23.5721 59.9525C21.3504 59.8946 19.2373 58.9882 17.6739 57.4226C16.1105 55.8571 15.2179 53.7534 15.1824 51.5511C15.1402 49.6952 15.1374 47.8366 15.1824 45.9779C15.2049 45.181 14.9547 44.9497 14.159 44.9692C12.2415 45.0194 10.3156 45.05 8.40095 44.9525C3.95588 44.7296 0.686035 41.7006 0.15465 37.3257C0.0193234 36.1275 -0.00420588 34.9196 0.0843615 33.7171C0.196824 32.0452 1.34113 30.9975 3.04493 30.9947C6.4188 30.9947 9.79267 30.9947 13.1665 31.0783C16.2115 31.1479 18.3061 32.7948 19.8552 35.2581C21.4044 37.7214 22.3575 40.4216 23.5412 43.0354C23.7492 43.4923 23.8561 44.0162 24.2862 44.3506C24.9408 45.8943 25.8682 47.3098 27.0247 48.5304C28.5873 50.1661 30.7391 51.123 33.0108 51.1924C35.2824 51.2619 37.4896 50.4382 39.1509 48.901C40.7704 47.413 41.7685 45.5377 42.6935 43.6066C43.8744 41.1377 44.8022 38.5546 46.1208 36.1442C47.4788 33.6335 49.3316 31.7164 52.2387 31.0393Z" fill="url(#paint0_linear)"/>
<path d="M10.9145 28.9523C8.29128 28.9663 5.67091 28.9969 3.0421 28.9913C1.63633 28.9913 0.461095 28.3504 0.230547 26.9516C-0.281156 23.6105 -0.10684 20.3586 2.44324 17.7114C3.2181 16.8684 4.16136 16.1942 5.21311 15.7318C6.26487 15.2694 7.40215 15.0287 8.55276 15.0251C10.4253 15.0056 12.3006 14.9806 14.1759 15.0251C14.9884 15.0474 15.188 14.7799 15.1993 14.0025C15.2358 11.6869 14.9378 9.35731 15.368 7.05562C15.7162 5.07393 16.7627 3.27904 18.3212 1.99055C19.8797 0.702062 21.8491 0.00361421 23.8786 0.0195774C28.1896 -0.00457268 32.5007 -0.00457268 36.8117 0.0195774C39.0855 0.0229339 41.2671 0.911101 42.8867 2.49286C44.5063 4.07462 45.4345 6.22346 45.4713 8.47676C45.5163 10.2406 45.5585 12.0101 45.4572 13.7712C45.3926 14.8719 45.7946 15.092 46.8012 15.0419C48.4375 14.9611 50.0794 15.0112 51.7186 15.0279C56.5741 15.0725 60.1729 18.3384 60.5778 23.1089C60.6592 24.3149 60.6658 25.5247 60.5975 26.7314C60.5497 27.9352 59.9058 28.9133 58.6856 28.9384C55.4608 29.0025 52.219 29.0276 49.0054 28.7824C46.1405 28.565 44.372 26.5893 42.9971 24.257C41.6476 21.972 40.7479 19.4781 39.6401 17.0872C39.4096 16.5912 39.2831 16.0199 38.7742 15.6939C38.493 14.5793 37.8436 13.682 37.1885 12.7903C33.1736 7.32591 26.035 7.44852 22.2591 13.069C21.5743 14.1206 20.97 15.2216 20.4513 16.3627C19.3716 18.6282 18.4326 20.9549 17.3248 23.2009C15.9725 25.9429 14.1224 28.2111 10.9145 28.9523Z" fill="url(#paint1_linear)"/>
<path d="M10.9146 28.9521C14.1225 28.2108 15.9754 25.9454 17.3249 23.2006C18.4327 20.9547 19.3717 18.6279 20.4429 16.3597C20.9618 15.2195 21.5661 14.1195 22.2507 13.0687C26.0295 7.45384 33.1652 7.33123 37.1801 12.7901C37.8352 13.6818 38.4931 14.5874 38.7658 15.6937C35.974 16.7526 33.8259 18.6112 32.0181 20.9352C30.7641 22.5486 29.5158 24.1704 28.0426 25.6026C25.7343 27.8514 23.0155 29.058 19.74 28.9994C16.8019 28.9549 13.8583 28.9799 10.9146 28.9521Z" fill="url(#paint2_linear)"/>
<path d="M52.2388 31.0393C49.3316 31.7192 47.4788 33.6335 46.1124 36.1387C44.7966 38.549 43.8631 41.1322 42.6851 43.601C41.7601 45.5321 40.762 47.4075 39.1425 48.8955C37.4812 50.4326 35.274 51.2563 33.0024 51.1869C30.7307 51.1175 28.5789 50.1605 27.0163 48.5249C25.8598 47.3042 24.9324 45.8887 24.2778 44.345C27.4493 43.1385 29.7407 40.8786 31.7313 38.2481C32.9005 36.6296 34.2356 35.1355 35.7152 33.7896C37.7426 31.9619 40.3917 30.9606 43.1321 30.9863C46.1658 30.9891 49.2023 31.0198 52.2388 31.0393Z" fill="url(#paint3_linear)"/>
<defs>
<linearGradient id="paint0_linear" x1="-4.44224" y1="-12.6761" x2="38.6212" y2="48.434" gradientUnits="userSpaceOnUse">
<stop stop-color="#00FF88"/>
<stop offset="0.43" stop-color="#00E5A0"/>
<stop offset="0.56" stop-color="#00DCA9"/>
<stop offset="0.93" stop-color="#00C2C3"/>
<stop offset="1" stop-color="#00C4C1"/>
</linearGradient>
<linearGradient id="paint1_linear" x1="-1577.99" y1="-2961.38" x2="1339.27" y2="5621.43" gradientUnits="userSpaceOnUse">
<stop stop-color="#00FF88"/>
<stop offset="0.43" stop-color="#00E5A0"/>
<stop offset="0.56" stop-color="#00DCA9"/>
<stop offset="0.93" stop-color="#00C2C3"/>
<stop offset="1" stop-color="#00C4C1"/>
</linearGradient>
<linearGradient id="paint2_linear" x1="26.7183" y1="24.3571" x2="16.1551" y2="10.3334" gradientUnits="userSpaceOnUse">
<stop offset="0.11" stop-color="#ED5614"/>
<stop offset="0.58" stop-color="#EA3C14"/>
<stop offset="0.91" stop-color="#E82714"/>
</linearGradient>
<linearGradient id="paint3_linear" x1="2438.7" y1="3010.03" x2="5219.42" y2="3010.03" gradientUnits="userSpaceOnUse">
<stop offset="0.11" stop-color="#ED5614"/>
<stop offset="0.58" stop-color="#EA3C14"/>
<stop offset="0.91" stop-color="#E82714"/>
</linearGradient>
</defs>
</svg>
