<svg width="203" height="60" viewBox="0 0 203 60" fill="none" xmlns="http://www.w3.org/2000/svg">
<path d="M84.7617 26.6562C84.7617 27.5234 84.5977 28.2852 84.2695 28.9414C83.9414 29.5977 83.5 30.1406 82.9453 30.5703C82.2891 31.0859 81.5664 31.4531 80.7773 31.6719C79.9961 31.8906 79 32 77.7891 32H70.8047V14.5508H76.9688C78.25 14.5508 79.2188 14.6016 79.875 14.7031C80.5391 14.7969 81.1602 15 81.7383 15.3125C82.3633 15.6484 82.8281 16.0977 83.1328 16.6602C83.4453 17.2227 83.6016 17.8711 83.6016 18.6055C83.6016 19.457 83.3867 20.2148 82.957 20.8789C82.5352 21.543 81.9492 22.0312 81.1992 22.3438V22.4375C82.2773 22.6641 83.1406 23.1289 83.7891 23.832C84.4375 24.5273 84.7617 25.4688 84.7617 26.6562ZM79.1484 19.4844C79.1484 19.2031 79.0742 18.9141 78.9258 18.6172C78.7852 18.3203 78.5625 18.1055 78.2578 17.9727C77.9688 17.8477 77.625 17.7812 77.2266 17.7734C76.8359 17.7578 76.25 17.75 75.4688 17.75H75.1641V21.4414H75.7148C76.4648 21.4414 76.9883 21.4336 77.2852 21.418C77.5898 21.4023 77.9023 21.3203 78.2227 21.1719C78.5742 21.0078 78.8164 20.7812 78.9492 20.4922C79.082 20.2031 79.1484 19.8672 79.1484 19.4844ZM80.25 26.5742C80.25 26.0352 80.1406 25.6133 79.9219 25.3086C79.7031 25.0039 79.375 24.7734 78.9375 24.6172C78.6719 24.5156 78.3047 24.4609 77.8359 24.4531C77.375 24.4375 76.7539 24.4297 75.9727 24.4297H75.1641V28.8008H75.3984C76.5391 28.8008 77.3281 28.793 77.7656 28.7773C78.2031 28.7617 78.6484 28.6562 79.1016 28.4609C79.5 28.2891 79.7891 28.0391 79.9688 27.7109C80.1562 27.375 80.25 26.9961 80.25 26.5742Z" fill="#08CCA5"/>
<path d="M103.412 23.2812C103.412 26.1016 102.658 28.3203 101.15 29.9375C99.6423 31.5547 97.5759 32.3633 94.9509 32.3633C92.3181 32.3633 90.2517 31.5469 88.7517 29.9141C87.2517 28.2734 86.5017 26.0625 86.5017 23.2812C86.5017 20.4766 87.2517 18.2617 88.7517 16.6367C90.2517 15.0039 92.3181 14.1875 94.9509 14.1875C97.5759 14.1875 99.6423 15 101.15 16.625C102.658 18.2422 103.412 20.4609 103.412 23.2812ZM98.8884 23.2695C98.8884 22.2305 98.7791 21.3477 98.5603 20.6211C98.3494 19.8867 98.0642 19.2852 97.7048 18.8164C97.3298 18.3398 96.9041 18 96.4275 17.7969C95.9587 17.5859 95.4705 17.4805 94.9627 17.4805C94.4236 17.4805 93.9353 17.5781 93.4978 17.7734C93.0603 17.9609 92.6384 18.3008 92.2322 18.793C91.8728 19.2461 91.5798 19.8477 91.3533 20.5977C91.1345 21.3477 91.0252 22.2422 91.0252 23.2812C91.0252 24.3516 91.1306 25.2422 91.3416 25.9531C91.5525 26.6562 91.8416 27.2461 92.2087 27.7227C92.5837 28.207 93.0095 28.5547 93.4861 28.7656C93.9627 28.9688 94.4548 29.0703 94.9627 29.0703C95.4783 29.0703 95.9783 28.9609 96.4627 28.7422C96.947 28.5156 97.365 28.168 97.7166 27.6992C98.0916 27.1914 98.3806 26.6016 98.5837 25.9297C98.7869 25.25 98.8884 24.3633 98.8884 23.2695Z" fill="#08CCA5"/>
<path d="M121.839 23.293C121.839 24.918 121.484 26.375 120.773 27.6641C120.062 28.9453 119.164 29.9297 118.078 30.6172C117.171 31.2031 116.183 31.582 115.113 31.7539C114.05 31.918 112.917 32 111.714 32H106.253V14.5508H111.667C112.894 14.5508 114.042 14.6289 115.113 14.7852C116.183 14.9414 117.187 15.3203 118.125 15.9219C119.273 16.6562 120.179 17.6484 120.843 18.8984C121.507 20.1406 121.839 21.6055 121.839 23.293ZM117.339 23.2578C117.339 22.1094 117.14 21.1289 116.742 20.3164C116.351 19.4961 115.746 18.8555 114.925 18.3945C114.332 18.0664 113.707 17.8867 113.05 17.8555C112.402 17.8242 111.625 17.8086 110.718 17.8086H110.636V28.7305H110.718C111.703 28.7305 112.531 28.7148 113.203 28.6836C113.882 28.6445 114.527 28.4336 115.136 28.0508C115.855 27.5977 116.402 26.9727 116.777 26.1758C117.152 25.3789 117.339 24.4062 117.339 23.2578Z" fill="#08CCA5"/>
<path d="M139.189 14.5508L133.165 24.7109V32H128.783V24.9336L122.654 14.5508H127.646L131.068 20.7852L134.361 14.5508H139.189Z" fill="#08CCA5"/>
<path d="M155.753 32H151.37V24.2656H145.405V32H141.022V14.5508H145.405V20.9375H151.37V14.5508H155.753V32Z" fill="#08CCA5"/>
<path d="M159.614 32V14.5508H171.415V17.8789H163.973V20.9375H170.829V24.2656H163.973V28.6719H171.415V32H159.614Z" fill="#08CCA5"/>
<path d="M186.268 32H174.62V14.5508H179.003V28.6719H186.268V32Z" fill="#08CCA5"/>
<path d="M202.024 20.0586C202.024 20.8711 201.895 21.6445 201.637 22.3789C201.379 23.1133 201.008 23.7266 200.524 24.2188C200.227 24.5234 199.899 24.8047 199.539 25.0625C199.188 25.3203 198.797 25.5391 198.367 25.7188C197.938 25.8984 197.469 26.0391 196.961 26.1406C196.461 26.2422 195.899 26.293 195.274 26.293H192.977V32H188.594V14.5508H195.368C196.375 14.5508 197.242 14.6445 197.969 14.832C198.703 15.0117 199.367 15.3008 199.961 15.6992C200.617 16.1367 201.125 16.7227 201.485 17.457C201.844 18.1836 202.024 19.0508 202.024 20.0586ZM197.524 20.1641C197.524 19.6719 197.407 19.25 197.172 18.8984C196.938 18.5391 196.657 18.293 196.328 18.1602C195.914 17.9805 195.516 17.8789 195.133 17.8555C194.758 17.8242 194.246 17.8086 193.598 17.8086H192.977V23.0352H193.282C193.696 23.0352 194.086 23.0312 194.453 23.0234C194.821 23.0156 195.141 22.9883 195.414 22.9414C195.649 22.9023 195.895 22.8281 196.153 22.7188C196.418 22.6016 196.621 22.4727 196.762 22.332C197.059 22.043 197.258 21.7422 197.36 21.4297C197.469 21.1172 197.524 20.6953 197.524 20.1641Z" fill="#08CCA5"/>
<path d="M78.0576 44.9209C78.0576 45.8506 77.8685 46.6891 77.4902 47.4365C77.1165 48.1839 76.613 48.7673 75.9795 49.1865C75.4645 49.5101 74.9404 49.7266 74.4072 49.8359C73.8786 49.9453 73.2018 50 72.377 50H70.0322V39.8213H72.3496C73.3066 39.8213 74.0563 39.8942 74.5986 40.04C75.1455 40.1813 75.6104 40.3773 75.9932 40.6279C76.6494 41.0609 77.1576 41.6374 77.5176 42.3574C77.8776 43.0729 78.0576 43.9274 78.0576 44.9209ZM76.6494 44.9004C76.6494 44.1165 76.5195 43.4489 76.2598 42.8975C76 42.3415 75.6149 41.9085 75.1045 41.5986C74.7445 41.3799 74.3594 41.2227 73.9492 41.127C73.5391 41.0312 73.0286 40.9834 72.418 40.9834H71.3857V48.8379H72.418C73.0195 48.8379 73.5459 48.79 73.9971 48.6943C74.4482 48.5986 74.8607 48.4209 75.2344 48.1611C75.7038 47.8421 76.057 47.4183 76.2939 46.8896C76.5309 46.3564 76.6494 45.6934 76.6494 44.9004Z" fill="#757575"/>
<path d="M82.1441 50H80.859V42.3643H82.1441V50ZM82.233 41.0859H80.7701V39.7529H82.233V41.0859Z" fill="#757575"/>
<path d="M90.0246 47.9287V43.7383C89.7056 43.5833 89.4094 43.474 89.1359 43.4102C88.8671 43.3418 88.5982 43.3076 88.3293 43.3076C87.6776 43.3076 87.1649 43.5469 86.7912 44.0254C86.4175 44.5039 86.2307 45.1898 86.2307 46.083C86.2307 46.9307 86.3719 47.5755 86.6545 48.0176C86.9416 48.4596 87.4042 48.6807 88.0422 48.6807C88.3749 48.6807 88.7167 48.6146 89.0676 48.4824C89.423 48.3503 89.7421 48.1657 90.0246 47.9287ZM85.7043 51.2236C85.7909 51.2601 85.9185 51.3079 86.0871 51.3672C86.2557 51.431 86.4471 51.4902 86.6613 51.5449C86.8983 51.6042 87.1171 51.652 87.3176 51.6885C87.5181 51.7249 87.7368 51.7432 87.9738 51.7432C88.3703 51.7432 88.7053 51.6908 88.9787 51.5859C89.2567 51.4811 89.4732 51.3353 89.6281 51.1484C89.774 50.9616 89.8765 50.7451 89.9357 50.499C89.995 50.2529 90.0246 49.9727 90.0246 49.6582V48.9883C89.6783 49.2891 89.3387 49.5124 89.0061 49.6582C88.6734 49.7995 88.2564 49.8701 87.7551 49.8701C86.8846 49.8701 86.1919 49.5465 85.677 48.8994C85.162 48.2523 84.9045 47.3226 84.9045 46.1104C84.9045 45.4769 84.9934 44.9163 85.1711 44.4287C85.3488 43.9365 85.5881 43.5195 85.8889 43.1777C86.176 42.8496 86.5155 42.5967 86.9074 42.4189C87.2993 42.2412 87.7049 42.1523 88.1242 42.1523C88.5207 42.1523 88.8625 42.2002 89.1496 42.2959C89.4413 42.387 89.7329 42.5192 90.0246 42.6924L90.0998 42.3643H91.3098V49.1318C91.3098 50.4261 91.0272 51.3763 90.4621 51.9824C89.897 52.5885 89.0334 52.8916 87.8713 52.8916C87.4976 52.8916 87.1148 52.862 86.7229 52.8027C86.3355 52.7435 85.9732 52.6637 85.6359 52.5635V51.2236H85.7043Z" fill="#757575"/>
<path d="M95.8816 50H94.5965V42.3643H95.8816V50ZM95.9705 41.0859H94.5076V39.7529H95.9705V41.0859Z" fill="#757575"/>
<path d="M101.479 50.1504C100.777 50.1504 100.23 49.9521 99.8383 49.5557C99.4464 49.1546 99.2504 48.5234 99.2504 47.6621V43.4307H98.3822V42.3643H99.2504V40.1699H100.536V42.3643H102.901V43.4307H100.536V47.0605C100.536 47.4479 100.542 47.7464 100.556 47.9561C100.57 48.1657 100.622 48.3617 100.713 48.5439C100.791 48.7035 100.916 48.8242 101.089 48.9062C101.262 48.9837 101.497 49.0225 101.793 49.0225C102.003 49.0225 102.206 48.9928 102.402 48.9336C102.598 48.8698 102.739 48.8174 102.826 48.7764H102.901V49.9316C102.659 50 102.413 50.0524 102.162 50.0889C101.916 50.1299 101.689 50.1504 101.479 50.1504Z" fill="#757575"/>
<path d="M109.523 48.1201V46.001C109.218 46.0283 108.831 46.0671 108.361 46.1172C107.896 46.1628 107.521 46.2288 107.233 46.3154C106.892 46.4202 106.609 46.582 106.386 46.8008C106.162 47.015 106.051 47.3158 106.051 47.7031C106.051 48.1406 106.174 48.471 106.42 48.6943C106.666 48.9176 107.026 49.0293 107.5 49.0293C107.906 49.0293 108.272 48.9427 108.601 48.7695C108.929 48.5918 109.236 48.3753 109.523 48.1201ZM109.523 49.1865C109.419 49.264 109.277 49.3734 109.1 49.5146C108.926 49.6514 108.758 49.7607 108.594 49.8428C108.366 49.9613 108.145 50.0524 107.931 50.1162C107.721 50.18 107.425 50.2119 107.042 50.2119C106.728 50.2119 106.429 50.1527 106.146 50.0342C105.864 49.9157 105.616 49.7493 105.401 49.5352C105.196 49.3255 105.032 49.068 104.909 48.7627C104.786 48.4528 104.725 48.127 104.725 47.7852C104.725 47.2565 104.836 46.8076 105.06 46.4385C105.283 46.0648 105.636 45.7686 106.119 45.5498C106.548 45.3538 107.053 45.2194 107.637 45.1465C108.22 45.069 108.849 45.012 109.523 44.9756V44.7295C109.523 44.4287 109.478 44.1872 109.387 44.0049C109.296 43.818 109.168 43.6745 109.004 43.5742C108.84 43.4694 108.639 43.401 108.402 43.3691C108.165 43.3327 107.922 43.3145 107.671 43.3145C107.375 43.3145 107.026 43.36 106.625 43.4512C106.224 43.5378 105.823 43.6654 105.422 43.834H105.347V42.5283C105.584 42.46 105.923 42.3848 106.365 42.3027C106.807 42.2207 107.245 42.1797 107.678 42.1797C108.202 42.1797 108.644 42.2207 109.004 42.3027C109.364 42.3848 109.688 42.5329 109.975 42.7471C110.253 42.9567 110.46 43.2279 110.597 43.5605C110.733 43.8932 110.802 44.2988 110.802 44.7773V50H109.523V49.1865Z" fill="#757575"/>
<path d="M115.326 50H114.041V39.3633H115.326V50Z" fill="#757575"/>
<path d="M133.213 50H131.859V41.2295L129.207 47.1973H128.387L125.755 41.2295V50H124.49V39.8213H126.336L128.879 45.4883L131.333 39.8213H133.213V50Z" fill="#757575"/>
<path d="M139.89 50.1777C138.673 50.1777 137.728 49.8359 137.053 49.1523C136.383 48.4642 136.048 47.4889 136.048 46.2266C136.048 44.9824 136.374 43.9935 137.026 43.2598C137.677 42.5215 138.53 42.1523 139.582 42.1523C140.056 42.1523 140.476 42.2207 140.84 42.3574C141.205 42.4941 141.524 42.7083 141.797 43C142.071 43.2917 142.28 43.6494 142.426 44.0732C142.572 44.4925 142.645 45.0075 142.645 45.6182V46.3154H137.354C137.354 47.2041 137.577 47.8831 138.024 48.3525C138.47 48.8219 139.088 49.0566 139.876 49.0566C140.159 49.0566 140.435 49.0247 140.704 48.9609C140.977 48.8971 141.223 48.8151 141.442 48.7148C141.674 48.61 141.87 48.5098 142.03 48.4141C142.189 48.3138 142.321 48.2204 142.426 48.1338H142.501V49.5352C142.351 49.5944 142.164 49.6696 141.941 49.7607C141.718 49.8473 141.517 49.9157 141.339 49.9658C141.089 50.0342 140.861 50.0866 140.656 50.123C140.455 50.1595 140.2 50.1777 139.89 50.1777ZM141.394 45.3311C141.385 44.9847 141.344 44.6862 141.271 44.4355C141.198 44.1849 141.093 43.973 140.956 43.7998C140.806 43.6084 140.612 43.4626 140.375 43.3623C140.143 43.262 139.854 43.2119 139.507 43.2119C139.165 43.2119 138.874 43.2643 138.632 43.3691C138.395 43.4694 138.179 43.6175 137.983 43.8135C137.791 44.014 137.646 44.2373 137.545 44.4834C137.445 44.7249 137.381 45.0075 137.354 45.3311H141.394Z" fill="#757575"/>
<path d="M151.223 50H149.938V49.2207C149.737 49.3893 149.564 49.5283 149.418 49.6377C149.272 49.7471 149.101 49.8473 148.905 49.9385C148.723 50.0251 148.534 50.0911 148.338 50.1367C148.142 50.1868 147.914 50.2119 147.654 50.2119C147.24 50.2119 146.854 50.1253 146.499 49.9521C146.148 49.779 145.85 49.526 145.604 49.1934C145.353 48.8561 145.159 48.4414 145.022 47.9492C144.886 47.4525 144.817 46.8828 144.817 46.2402C144.817 45.5703 144.904 44.9915 145.077 44.5039C145.25 44.0117 145.49 43.5833 145.795 43.2188C146.073 42.8861 146.408 42.6263 146.8 42.4395C147.196 42.248 147.611 42.1523 148.044 42.1523C148.427 42.1523 148.759 42.1956 149.042 42.2822C149.325 42.3643 149.623 42.4941 149.938 42.6719V39.3633H151.223V50ZM149.938 48.1406V43.7383C149.618 43.5833 149.331 43.4762 149.076 43.417C148.826 43.3577 148.552 43.3281 148.256 43.3281C147.595 43.3281 147.078 43.5765 146.704 44.0732C146.33 44.5654 146.144 45.2786 146.144 46.2129C146.144 47.1107 146.287 47.7988 146.574 48.2773C146.861 48.7513 147.322 48.9883 147.955 48.9883C148.292 48.9883 148.632 48.9131 148.974 48.7627C149.315 48.6077 149.637 48.4004 149.938 48.1406Z" fill="#757575"/>
<path d="M155.795 50H154.509V42.3643H155.795V50ZM155.883 41.0859H154.421V39.7529H155.883V41.0859Z" fill="#757575"/>
<path d="M162.116 50.1709C161.592 50.1709 161.112 50.0911 160.674 49.9316C160.237 49.7676 159.861 49.5215 159.546 49.1934C159.232 48.8652 158.988 48.4528 158.815 47.9561C158.641 47.4548 158.555 46.8669 158.555 46.1924C158.555 45.5225 158.644 44.9437 158.821 44.4561C159.004 43.9684 159.245 43.5583 159.546 43.2256C159.847 42.8929 160.221 42.6377 160.667 42.46C161.118 42.2777 161.601 42.1865 162.116 42.1865C162.536 42.1865 162.939 42.2458 163.326 42.3643C163.718 42.4827 164.067 42.6195 164.372 42.7744V44.2168H164.297C164.206 44.1393 164.087 44.0505 163.942 43.9502C163.8 43.8499 163.627 43.7474 163.422 43.6426C163.244 43.5514 163.035 43.4717 162.793 43.4033C162.552 43.335 162.319 43.3008 162.096 43.3008C161.431 43.3008 160.895 43.5537 160.489 44.0596C160.088 44.5609 159.888 45.2718 159.888 46.1924C159.888 47.0947 160.082 47.7988 160.469 48.3047C160.861 48.806 161.403 49.0566 162.096 49.0566C162.515 49.0566 162.914 48.9701 163.292 48.7969C163.67 48.6237 164.005 48.4004 164.297 48.127H164.372V49.5693C164.245 49.6286 164.085 49.7015 163.894 49.7881C163.702 49.8701 163.529 49.9316 163.374 49.9727C163.155 50.0365 162.96 50.0843 162.786 50.1162C162.613 50.1527 162.39 50.1709 162.116 50.1709Z" fill="#757575"/>
<path d="M168.261 50H166.975V42.3643H168.261V50ZM168.349 41.0859H166.887V39.7529H168.349V41.0859Z" fill="#757575"/>
<path d="M177.549 50H176.264V45.6523C176.264 45.3014 176.246 44.9756 176.209 44.6748C176.177 44.3695 176.114 44.1257 176.018 43.9434C175.913 43.752 175.767 43.6107 175.58 43.5195C175.394 43.4238 175.138 43.376 174.815 43.376C174.496 43.376 174.165 43.4626 173.824 43.6357C173.486 43.8044 173.156 44.0254 172.832 44.2988V50H171.547V42.3643H172.832V43.2119C173.215 42.8701 173.593 42.6081 173.967 42.4258C174.341 42.2435 174.735 42.1523 175.15 42.1523C175.902 42.1523 176.49 42.4007 176.913 42.8975C177.337 43.3896 177.549 44.1051 177.549 45.0439V50Z" fill="#757575"/>
<path d="M184.069 50.1777C182.853 50.1777 181.907 49.8359 181.232 49.1523C180.562 48.4642 180.228 47.4889 180.228 46.2266C180.228 44.9824 180.553 43.9935 181.205 43.2598C181.857 42.5215 182.709 42.1523 183.762 42.1523C184.236 42.1523 184.655 42.2207 185.02 42.3574C185.384 42.4941 185.703 42.7083 185.977 43C186.25 43.2917 186.46 43.6494 186.605 44.0732C186.751 44.4925 186.824 45.0075 186.824 45.6182V46.3154H181.533C181.533 47.2041 181.757 47.8831 182.203 48.3525C182.65 48.8219 183.267 49.0566 184.056 49.0566C184.338 49.0566 184.614 49.0247 184.883 48.9609C185.156 48.8971 185.402 48.8151 185.621 48.7148C185.854 48.61 186.049 48.5098 186.209 48.4141C186.368 48.3138 186.501 48.2204 186.605 48.1338H186.681V49.5352C186.53 49.5944 186.343 49.6696 186.12 49.7607C185.897 49.8473 185.696 49.9157 185.519 49.9658C185.268 50.0342 185.04 50.0866 184.835 50.123C184.634 50.1595 184.379 50.1777 184.069 50.1777ZM185.573 45.3311C185.564 44.9847 185.523 44.6862 185.45 44.4355C185.377 44.1849 185.272 43.973 185.136 43.7998C184.985 43.6084 184.792 43.4626 184.555 43.3623C184.322 43.262 184.033 43.2119 183.687 43.2119C183.345 43.2119 183.053 43.2643 182.812 43.3691C182.575 43.4694 182.358 43.6175 182.162 43.8135C181.971 44.014 181.825 44.2373 181.725 44.4834C181.624 44.7249 181.561 45.0075 181.533 45.3311H185.573Z" fill="#757575"/>
<g clip-path="url(#clip0)">
<path d="M52.2387 31.0393C54.2518 31.0197 56.2649 30.9696 58.278 30.9947C59.5713 31.0114 60.471 31.7136 60.5581 32.9954C60.6875 34.8875 60.7887 36.8074 60.277 38.6688C59.7938 40.455 58.7366 42.0365 57.2653 43.1738C55.7941 44.3112 53.9891 44.9424 52.1235 44.972C50.3466 45.0333 48.5612 45.0472 46.7815 44.972C45.7665 44.9274 45.4263 45.1615 45.4404 46.2455C45.4657 48.4747 45.6906 50.7039 45.2858 52.9109C44.5491 56.943 41.1725 59.8773 37.0676 59.9525C32.5691 60.0212 28.0706 60.0212 23.5721 59.9525C21.3504 59.8946 19.2373 58.9882 17.6739 57.4226C16.1105 55.8571 15.2179 53.7534 15.1824 51.5511C15.1402 49.6952 15.1374 47.8366 15.1824 45.9779C15.2049 45.181 14.9547 44.9497 14.159 44.9692C12.2415 45.0194 10.3156 45.05 8.40095 44.9525C3.95588 44.7296 0.686035 41.7006 0.15465 37.3257C0.0193234 36.1275 -0.00420588 34.9196 0.0843615 33.7171C0.196824 32.0452 1.34113 30.9975 3.04493 30.9947C6.4188 30.9947 9.79267 30.9947 13.1665 31.0783C16.2115 31.1479 18.3061 32.7948 19.8552 35.2581C21.4044 37.7214 22.3575 40.4216 23.5412 43.0354C23.7492 43.4923 23.8561 44.0162 24.2862 44.3506C24.9408 45.8943 25.8682 47.3098 27.0247 48.5304C28.5873 50.1661 30.7391 51.123 33.0108 51.1924C35.2824 51.2619 37.4896 50.4382 39.1509 48.901C40.7704 47.413 41.7685 45.5377 42.6935 43.6066C43.8744 41.1377 44.8022 38.5546 46.1208 36.1442C47.4788 33.6335 49.3316 31.7164 52.2387 31.0393Z" fill="url(#paint0_linear)"/>
<path d="M10.9145 28.9523C8.29128 28.9663 5.67091 28.9969 3.0421 28.9913C1.63633 28.9913 0.461095 28.3504 0.230547 26.9516C-0.281156 23.6105 -0.10684 20.3586 2.44324 17.7114C3.2181 16.8684 4.16136 16.1942 5.21311 15.7318C6.26487 15.2694 7.40215 15.0287 8.55276 15.0251C10.4253 15.0056 12.3006 14.9806 14.1759 15.0251C14.9884 15.0474 15.188 14.7799 15.1993 14.0025C15.2358 11.6869 14.9378 9.35731 15.368 7.05562C15.7162 5.07393 16.7627 3.27904 18.3212 1.99055C19.8797 0.702062 21.8491 0.00361421 23.8786 0.0195774C28.1896 -0.00457268 32.5007 -0.00457268 36.8117 0.0195774C39.0855 0.0229339 41.2671 0.911101 42.8867 2.49286C44.5063 4.07462 45.4345 6.22346 45.4713 8.47676C45.5163 10.2406 45.5585 12.0101 45.4572 13.7712C45.3926 14.8719 45.7946 15.092 46.8012 15.0419C48.4375 14.9611 50.0794 15.0112 51.7186 15.0279C56.5741 15.0725 60.1729 18.3384 60.5778 23.1089C60.6592 24.3149 60.6658 25.5247 60.5975 26.7314C60.5497 27.9352 59.9058 28.9133 58.6856 28.9384C55.4608 29.0025 52.219 29.0276 49.0054 28.7824C46.1405 28.565 44.372 26.5893 42.9971 24.257C41.6476 21.972 40.7479 19.4781 39.6401 17.0872C39.4096 16.5912 39.2831 16.0199 38.7742 15.6939C38.493 14.5793 37.8436 13.682 37.1885 12.7903C33.1736 7.32591 26.035 7.44852 22.2591 13.069C21.5743 14.1206 20.97 15.2216 20.4513 16.3627C19.3716 18.6282 18.4326 20.9549 17.3248 23.2009C15.9725 25.9429 14.1224 28.2111 10.9145 28.9523Z" fill="url(#paint1_linear)"/>
<path d="M10.9146 28.9521C14.1225 28.2108 15.9754 25.9454 17.3249 23.2006C18.4327 20.9547 19.3717 18.6279 20.4429 16.3597C20.9618 15.2195 21.5661 14.1195 22.2507 13.0687C26.0295 7.45384 33.1652 7.33123 37.1801 12.7901C37.8352 13.6818 38.4931 14.5874 38.7658 15.6937C35.974 16.7526 33.8259 18.6112 32.0181 20.9352C30.7641 22.5486 29.5158 24.1704 28.0426 25.6026C25.7343 27.8514 23.0155 29.058 19.74 28.9994C16.8019 28.9549 13.8583 28.9799 10.9146 28.9521Z" fill="url(#paint2_linear)"/>
<path d="M52.2388 31.0393C49.3316 31.7192 47.4788 33.6335 46.1124 36.1387C44.7966 38.549 43.8631 41.1322 42.6851 43.601C41.7601 45.5321 40.762 47.4075 39.1425 48.8955C37.4812 50.4326 35.274 51.2563 33.0024 51.1869C30.7307 51.1175 28.5789 50.1605 27.0163 48.5249C25.8598 47.3042 24.9324 45.8887 24.2778 44.345C27.4493 43.1385 29.7407 40.8786 31.7313 38.2481C32.9005 36.6296 34.2356 35.1355 35.7152 33.7896C37.7426 31.9619 40.3917 30.9606 43.1321 30.9863C46.1658 30.9891 49.2023 31.0198 52.2388 31.0393Z" fill="url(#paint3_linear)"/>
</g>
<defs>
<linearGradient id="paint0_linear" x1="-4.44224" y1="-12.6761" x2="38.6212" y2="48.434" gradientUnits="userSpaceOnUse">
<stop stop-color="#00FF88"/>
<stop offset="0.43" stop-color="#00E5A0"/>
<stop offset="0.56" stop-color="#00DCA9"/>
<stop offset="0.93" stop-color="#00C2C3"/>
<stop offset="1" stop-color="#00C4C1"/>
</linearGradient>
<linearGradient id="paint1_linear" x1="-1577.99" y1="-2961.38" x2="1339.27" y2="5621.43" gradientUnits="userSpaceOnUse">
<stop stop-color="#00FF88"/>
<stop offset="0.43" stop-color="#00E5A0"/>
<stop offset="0.56" stop-color="#00DCA9"/>
<stop offset="0.93" stop-color="#00C2C3"/>
<stop offset="1" stop-color="#00C4C1"/>
</linearGradient>
<linearGradient id="paint2_linear" x1="26.7183" y1="24.3571" x2="16.1551" y2="10.3334" gradientUnits="userSpaceOnUse">
<stop offset="0.11" stop-color="#ED5614"/>
<stop offset="0.58" stop-color="#EA3C14"/>
<stop offset="0.91" stop-color="#E82714"/>
</linearGradient>
<linearGradient id="paint3_linear" x1="2438.7" y1="3010.03" x2="5219.42" y2="3010.03" gradientUnits="userSpaceOnUse">
<stop offset="0.11" stop-color="#ED5614"/>
<stop offset="0.58" stop-color="#EA3C14"/>
<stop offset="0.91" stop-color="#E82714"/>
</linearGradient>
<clipPath id="clip0">
<rect width="60.6593" height="60" fill="white"/>
</clipPath>
</defs>
</svg>
